<?xml version="1.0" encoding="UTF-8"?>
<svg id="Layer_1" xmlns="http://www.w3.org/2000/svg" version="1.1" viewBox="0 0 216.6 160">
  <!-- Generator: Adobe Illustrator 29.3.1, SVG Export Plug-In . SVG Version: 2.1.0 Build 151)  -->
  <defs>
    <style>
      .st0 {
        fill: none;
        stroke: #fff;
        stroke-miterlimit: 10;
        stroke-width: .5px;
      }
    </style>
  </defs>
  <polyline class="st0" points="175.24 86.31 212.16 71.94 110.3 16.6 4.16 67.78 38.14 84.49"/>
  <path class="st0" d="M38.14,128.35s49.5-9.5,67.96,14.25c24.36-21.38,69.14-14.25,69.14-14.25v-42.04s-79.74-34.68-137.1-1.83v43.86Z"/>
  <path class="st0" d="M59.04,41.32s-41.13-16.68-42.11,10.14v50.37s2.95-1.88,7.07,0v-50.37s7.81-13.01,26.59-6.06"/>
  <path class="st0" d="M16.39,111.58s-1.67,13.68-1.93,15.13c-.47,2.61-1.21,4.99,1.4,4.79,2.44-.19,9.15,0,9.15,0,0,0,1.96.25,1.01-4.73-.86-4.52-1.58-15.19-1.58-15.19,0,0,3.62-10.4-4.01-10.67-6.65-.24-6.02,7.97-4.05,10.67Z"/>
</svg>