<?xml version="1.0" encoding="UTF-8"?>
<svg id="Layer_1" xmlns="http://www.w3.org/2000/svg" version="1.1" viewBox="0 0 160 160">
  <!-- Generator: Adobe Illustrator 29.3.1, SVG Export Plug-In . SVG Version: 2.1.0 Build 151)  -->
  <defs>
    <style>
      .st0 {
        fill: none;
        stroke: #263f3c;
        stroke-miterlimit: 10;
      }
    </style>
  </defs>
  <path class="st0" d="M130.8,36.3v8.6h-14.6v77.5c0,4-3.2,7.2-7.2,7.2H39.6s-2.9,0-2.9,0c-4.3,0-7.9-3.5-7.9-7.8v-8.2h10.7V38.1c0-4.7,3.8-8.5,8.5-8.5h68.1c.3,0,.6,0,.8,0h7.1c3.7,0,6.7,3,6.7,6.7h0Z"/>
  <line class="st0" x1="64" y1="40.7" x2="106.2" y2="40.7"/>
  <line class="st0" x1="52.9" y1="51.2" x2="106.2" y2="51.2"/>
  <line class="st0" x1="49.6" y1="71.9" x2="94.6" y2="71.9"/>
  <line class="st0" x1="49.6" y1="82.1" x2="82.2" y2="82.1"/>
  <line class="st0" x1="50.3" y1="92.4" x2="72.1" y2="92.4"/>
  <line class="st0" x1="49" y1="102.6" x2="70.8" y2="102.6"/>
  <line class="st0" x1="49.6" y1="61.5" x2="103.3" y2="61.5"/>
  <path class="st0" d="M46.6,45.1v-4.4s-.1-3.8,2.9-3.8h5.5"/>
  <path class="st0" d="M116.2,44.9v-9.2s-.2-6,5.5-6.1"/>
  <path class="st0" d="M39.6,113.6h62.6s-5.5,15.9,8,16"/>
  <polygon class="st0" points="124.6 64.9 116.9 57.2 79.1 94.9 86.8 102.6 124.6 64.9"/>
  <polyline class="st0" points="79.1 94.9 74.9 106.9 86.8 102.6"/>
  <line class="st0" x1="82.7" y1="98.5" x2="120.5" y2="60.8"/>
  <path class="st0" d="M116.9,57.2h0c.2-.2,2-1.9,2.3-2.1,2.5-2,4.2-2,7,.8,1.8,1.8,2.1,3.3,1.9,4.4-.1.8-.5,1.5-1.1,2.1l-2.5,2.5"/>
</svg>