<?xml version="1.0" encoding="UTF-8"?>
<svg id="Layer_1" xmlns="http://www.w3.org/2000/svg" version="1.1" viewBox="0 0 160 160">
  <!-- Generator: Adobe Illustrator 29.3.1, SVG Export Plug-In . SVG Version: 2.1.0 Build 151)  -->
  <defs>
    <style>
      .st0 {
        fill: none;
        stroke: #263f3c;
        stroke-miterlimit: 10;
        stroke-width: .5px;
      }
    </style>
  </defs>
  <path class="st0" d="M130.84,36.31v8.62h-14.62v77.53c0,3.97-3.23,7.18-7.22,7.18H39.58v-.04h-2.89c-4.33,0-7.85-3.49-7.85-7.81v-8.21h10.74V38.14c0-4.69,3.82-8.49,8.54-8.49h68.1v.05c.27-.03.55-.05.83-.05h7.1c3.7,0,6.7,2.98,6.7,6.66Z"/>
  <line class="st0" x1="64.01" y1="40.69" x2="106.22" y2="40.69"/>
  <line class="st0" x1="52.91" y1="51.19" x2="106.22" y2="51.19"/>
  <line class="st0" x1="49.58" y1="71.9" x2="94.56" y2="71.9"/>
  <line class="st0" x1="49.58" y1="82.13" x2="82.16" y2="82.13"/>
  <line class="st0" x1="50.32" y1="92.36" x2="72.07" y2="92.36"/>
  <line class="st0" x1="49.02" y1="102.59" x2="70.77" y2="102.59"/>
  <line class="st0" x1="49.58" y1="61.54" x2="103.26" y2="61.54"/>
  <path class="st0" d="M46.63,45.13v-4.44s-.12-3.83,2.94-3.83h5.53"/>
  <path class="st0" d="M116.22,44.93v-9.21s-.19-6.01,5.49-6.08"/>
  <path class="st0" d="M39.58,113.59h62.63s-5.54,15.86,7.97,15.96"/>
  <polygon class="st0" points="124.63 64.92 116.91 57.24 79.06 94.89 86.78 102.57 124.63 64.92"/>
  <polyline class="st0" points="79.06 94.89 74.88 106.93 86.78 102.57"/>
  <line class="st0" x1="82.68" y1="98.49" x2="120.53" y2="60.84"/>
  <path class="st0" d="M116.91,57.24h0c.23-.23,2.03-1.9,2.29-2.1,2.52-1.98,4.23-1.99,7.02.78,1.77,1.76,2.07,3.3,1.92,4.39-.11.79-.5,1.51-1.07,2.07l-2.5,2.48"/>
</svg>