<?xml version="1.0" encoding="UTF-8"?>
<svg id="Layer_1" xmlns="http://www.w3.org/2000/svg" version="1.1" viewBox="0 0 160 160">
  <!-- Generator: Adobe Illustrator 29.3.1, SVG Export Plug-In . SVG Version: 2.1.0 Build 151)  -->
  <defs>
    <style>
      .st0 {
        fill: none;
        stroke: #263f3c;
        stroke-miterlimit: 10;
        stroke-width: .5px;
      }
    </style>
  </defs>
  <ellipse class="st0" cx="58.65" cy="68.88" rx="32.12" ry="32.06"/>
  <ellipse class="st0" cx="58.65" cy="68.88" rx="40.33" ry="40.26"/>
  <ellipse class="st0" cx="58.65" cy="68.88" rx="40.33" ry="40.26"/>
  <polygon class="st0" points="144.31 125.93 138.94 133.61 131.07 128.14 129.62 130.21 97.06 107.58 98.51 105.52 87.57 97.91 92.89 90.18 103.88 97.82 104.97 96.25 137.54 118.88 136.44 120.44 144.31 125.93"/>
  <path class="st0" d="M43.2,73.66l14.17,4.98,13.52-28.8c.29-.8,1.22-1.17,1.98-.79l2.32,1.15c.67.33.99,1.11.75,1.82l-14,32.78c-.56,1.63-2.43,2.4-3.97,1.63l-17.18-7.22c-.89-.44-1.29-1.48-.94-2.4l.81-2.11c.39-1.01,1.55-1.49,2.54-1.04Z"/>
</svg>