<?xml version="1.0" encoding="UTF-8"?>
<svg id="Layer_1" xmlns="http://www.w3.org/2000/svg" version="1.1" viewBox="0 0 275.2 287.2">
  <!-- Generator: Adobe Illustrator 29.3.1, SVG Export Plug-In . SVG Version: 2.1.0 Build 151)  -->
  <defs>
    <style>
      .st0 {
        fill: none;
        stroke: #fff;
        stroke-miterlimit: 10;
      }
    </style>
  </defs>
  <path class="st0" d="M118.2,73.2c1.9,12.4,4.2,33.3-1.5,32.4-.4-11.8-60.8,13.3-60.4-7.2-19.8,5.9-36,15.2-17.7-6.3-12,7.8-39.7-1.5-27.9-4,25-1.7,56.4-33,81.6-35.5,12.7-1.2,24.1,8,25.9,20.6h0Z"/>
  <path class="st0" d="M151.9,68.6c-1.9,11.4-5.3,37,.9,36,.4-11.8,60.8,13.3,60.4-7.2,19.8,5.9,36.1,15.2,17.7-6.3,12,7.8,39.7-1.5,27.9-4-31.9-2.1-74.2-52.6-100.8-29.6-3.3,2.8-5.5,6.8-6.2,11.1h0Z"/>
  <line class="st0" x1="134.4" y1="52" x2="134.4" y2="276"/>
  <path class="st0" d="M89.1,115c-8.6,1.7-22.8,48.5,13.4,47.8,47.7-1,77.2,10.4,78.4,25.1.9,10.8-6.4,17.3-9.7,19.4"/>
  <path class="st0" d="M104.1,174.6c-5.8,1.1-15.6,33.1,9.2,32.6,32.6-.7,52.7,7.1,53.5,17.1.6,7.3-4.3,11.8-6.6,13.2"/>
  <path class="st0" d="M112,219.4c-3.8.7-10.1,21.4,5.9,21.1,21-.4,34,4.6,34.6,11.1.4,4.7-2.8,7.6-4.3,8.5"/>
  <path class="st0" d="M176.3,117s33,20.7,0,38.4"/>
  <path class="st0" d="M121.5,249.1c-3.9-.5-7.4,2-8,5.3-.8,3.8,2.5,6.9,5.2,7.9,1.8.6,3.4.5,4.2.3"/>
  <ellipse class="st0" cx="134.4" cy="31" rx="21" ry="21"/>
</svg>