<?xml version="1.0" encoding="UTF-8"?>
<svg id="Layer_1" xmlns="http://www.w3.org/2000/svg" version="1.1" viewBox="0 0 275.2 287.25">
  <!-- Generator: Adobe Illustrator 29.3.1, SVG Export Plug-In . SVG Version: 2.1.0 Build 151)  -->
  <defs>
    <style>
      .st0 {
        fill: none;
        stroke: #fff;
        stroke-miterlimit: 10;
        stroke-width: .75px;
      }
    </style>
  </defs>
  <path class="st0" d="M118.19,73.21c1.86,12.42,4.17,33.28-1.49,32.39-.45-11.76-60.79,13.33-60.43-7.16-19.79,5.92-36.05,15.21-17.74-6.33-12.04,7.8-39.72-1.48-27.89-4.01,24.99-1.65,56.39-33,81.6-35.45,12.71-1.24,24.05,7.96,25.94,20.57Z"/>
  <path class="st0" d="M151.91,68.64c-1.85,11.38-5.34,37.02.92,36.04.45-11.76,60.79,13.33,60.43-7.16,19.79,5.92,36.05,15.21,17.74-6.33,12.04,7.8,39.72-1.48,27.89-4.01-31.9-2.1-74.23-52.58-100.81-29.64-3.3,2.85-5.46,6.81-6.16,11.11Z"/>
  <line class="st0" x1="134.35" y1="51.97" x2="134.35" y2="276.04"/>
  <path class="st0" d="M89.13,114.99c-8.56,1.69-22.82,48.52,13.42,47.78,47.74-.97,77.22,10.36,78.38,25.1.85,10.76-6.35,17.34-9.72,19.41"/>
  <path class="st0" d="M104.09,174.61c-5.84,1.15-15.57,33.1,9.15,32.6,32.57-.66,52.69,7.07,53.48,17.13.58,7.34-4.33,11.83-6.63,13.24"/>
  <path class="st0" d="M111.99,219.4c-3.77.74-10.06,21.39,5.91,21.06,21.04-.43,34.04,4.57,34.55,11.07.37,4.74-2.8,7.64-4.28,8.55"/>
  <path class="st0" d="M176.28,116.99s32.96,20.67,0,38.39"/>
  <path class="st0" d="M121.49,249.07c-3.87-.52-7.37,1.99-8.03,5.34-.75,3.78,2.46,6.87,5.21,7.88,1.75.64,3.36.45,4.23.28"/>
  <ellipse class="st0" cx="134.35" cy="31.01" rx="21" ry="20.97"/>
</svg>