<?xml version="1.0" encoding="UTF-8"?>
<svg id="Layer_1" xmlns="http://www.w3.org/2000/svg" version="1.1" viewBox="0 0 254.12 238.31">
  <!-- Generator: Adobe Illustrator 29.3.1, SVG Export Plug-In . SVG Version: 2.1.0 Build 151)  -->
  <defs>
    <style>
      .st0 {
        fill: none;
        stroke: #263f3c;
        stroke-miterlimit: 10;
        stroke-width: .5px;
      }
    </style>
  </defs>
  <path class="st0" d="M244.47,116.5c0,59.65-52.15,108-116.49,108S11.49,176.14,11.49,116.5c0-36.54,19.57-68.84,49.53-88.38,18.94-12.36,42.04-19.62,66.96-19.62,64.34,0,116.49,48.35,116.49,108Z"/>
  <path class="st0" d="M215.99,116.5c0,59.5-39.4,107.74-88.01,107.74s-88.01-48.24-88.01-107.74c0-36.45,14.79-68.67,37.42-88.17,14.31-12.33,31.76-19.57,50.59-19.57,48.61,0,88.01,48.24,88.01,107.74Z"/>
  <path class="st0" d="M181.18,116.5c0,59.5-23.09,107.74-51.57,107.74s-51.57-48.24-51.57-107.74c0-36.45,8.67-68.67,21.93-88.17,8.39-12.33,18.61-19.57,29.64-19.57,28.48,0,51.57,48.24,51.57,107.74Z"/>
  <path class="st0" d="M127.99,168.12c-64.34,0-116.5-23.11-116.5-51.62s52.16-51.62,116.5-51.62c39.42,0,74.26,8.67,95.34,21.95,13.33,8.39,21.16,18.63,21.16,29.67,0,28.51-52.16,51.62-116.5,51.62Z"/>
  <path class="st0" d="M127.98,204.59c-64.34,0-116.49-39.44-116.49-88.1S63.64,28.4,127.98,28.4c39.41,0,74.25,14.8,95.33,37.46,13.33,14.33,21.16,31.79,21.16,50.64,0,48.65-52.15,88.1-116.49,88.1Z"/>
</svg>