<?xml version="1.0" encoding="UTF-8"?>
<svg id="Layer_1" xmlns="http://www.w3.org/2000/svg" version="1.1" viewBox="0 0 533.08 160">
  <!-- Generator: Adobe Illustrator 29.3.1, SVG Export Plug-In . SVG Version: 2.1.0 Build 151)  -->
  <defs>
    <style>
      .st0 {
        fill: #4a5e2b;
      }

      .st1 {
        fill: #5c91a5;
      }
    </style>
  </defs>
  <path class="st1" d="M59.87,97.33c-2.86,0-5.46-.5-7.81-1.51s-4.22-2.72-5.62-5.15-2.1-5.76-2.1-10v-28.5h8.14v29.39c0,2.5.4,4.38,1.21,5.65.8,1.26,1.77,2.11,2.9,2.54,1.13.44,2.18.65,3.16.65s2.08-.21,3.18-.64c1.1-.42,2.02-1.27,2.77-2.53s1.13-3.15,1.13-5.68v-29.39h8.14v28.5c0,4.24-.68,7.57-2.04,10-1.36,2.43-3.18,4.15-5.46,5.15-2.29,1.01-4.82,1.51-7.59,1.51Z"/>
  <path class="st1" d="M114.6,97.39l-20.92-24.23-1.94-2.54.31,6.17v19.72h-7.7v-45.1h.69l20.6,24.42,2.19,2.89-.31-6.07v-20.48h7.7v45.22h-.63Z"/>
  <path class="st1" d="M140.53,97.26c-2.28,0-4.47-.47-6.57-1.42-2.11-.94-4-2.37-5.68-4.29s-3.01-4.36-3.99-7.33c-.98-2.97-1.47-6.47-1.47-10.49,0-4.83.83-8.91,2.49-12.23,1.66-3.32,3.88-5.83,6.67-7.54,2.79-1.71,5.87-2.56,9.25-2.56,2.3,0,4.17.22,5.62.67,1.45.45,2.61.98,3.48,1.59.87.61,1.57,1.18,2.11,1.69l-3.51,6.68c-.9-1-1.83-1.8-2.79-2.4-.96-.6-2.49-.91-4.6-.91s-3.94.63-5.43,1.88c-1.49,1.25-2.63,2.97-3.41,5.17s-1.17,4.7-1.17,7.52c0,5.53.91,9.71,2.74,12.51,1.83,2.81,4.02,4.21,6.59,4.21,1.98,0,3.67-.29,5.07-.86s2.44-1.22,3.13-1.94l3.44,6.3c-.58.49-1.36,1.02-2.33,1.61s-2.23,1.09-3.79,1.51c-1.56.42-3.5.64-5.84.64Z"/>
  <path class="st1" d="M173.53,97.26c-3.95,0-7.27-.95-9.97-2.85-2.7-1.9-4.75-4.56-6.15-8-1.4-3.43-2.1-7.47-2.1-12.12s.69-8.62,2.07-12.05c1.38-3.44,3.41-6.1,6.09-8,2.68-1.9,5.98-2.85,9.88-2.85s7.46.96,10.16,2.89c2.7,1.93,4.73,4.61,6.09,8.05,1.36,3.43,2.03,7.42,2.03,11.96s-.7,8.68-2.1,12.12-3.44,6.1-6.14,8c-2.69,1.9-5.98,2.85-9.86,2.85ZM173.53,90.46c2.73,0,5.05-1.34,6.94-4.02,1.89-2.68,2.83-6.79,2.83-12.32s-.88-9.33-2.65-12.04c-1.76-2.7-4.2-4.05-7.31-4.05s-5.39,1.36-7.09,4.07c-1.7,2.71-2.55,6.74-2.55,12.08s.9,9.63,2.71,12.29c1.81,2.66,4.18,3.99,7.12,3.99Z"/>
  <path class="st1" d="M199.33,96.5v-45.1h.63l17.66,21.15,17.53-21.15h.69v45.1h-7.76v-19.02l.28-7.51-2.22,3.43-8.58,10.24-8.58-10.24-2.22-3.43.34,7.51v19.02h-7.76Z"/>
  <path class="st1" d="M246.35,96.5v-45.1h.63l17.66,21.15,17.53-21.15h.69v45.1h-7.76v-19.02l.28-7.51-2.22,3.43-8.58,10.24-8.58-10.24-2.22-3.43.34,7.51v19.02h-7.76Z"/>
  <path class="st1" d="M308.78,97.26c-3.95,0-7.27-.95-9.97-2.85s-4.75-4.56-6.15-8-2.1-7.47-2.1-12.12.69-8.62,2.07-12.05c1.38-3.44,3.41-6.1,6.09-8,2.68-1.9,5.97-2.85,9.88-2.85s7.46.96,10.16,2.89c2.7,1.93,4.73,4.61,6.09,8.05,1.36,3.43,2.04,7.42,2.04,11.96s-.7,8.68-2.1,12.12-3.44,6.1-6.14,8-5.98,2.85-9.86,2.85ZM308.78,90.46c2.73,0,5.04-1.34,6.93-4.02,1.89-2.68,2.83-6.79,2.83-12.32s-.88-9.33-2.65-12.04c-1.76-2.7-4.2-4.05-7.31-4.05s-5.39,1.36-7.09,4.07c-1.7,2.71-2.55,6.74-2.55,12.08s.9,9.63,2.71,12.29c1.8,2.66,4.18,3.99,7.12,3.99Z"/>
  <path class="st1" d="M364.83,97.39l-20.92-24.23-1.94-2.54.31,6.17v19.72h-7.7v-45.1h.69l20.6,24.42,2.19,2.89-.31-6.07v-20.48h7.7v45.22h-.63Z"/>
  <path class="st0" d="M402.4,51.34h2.75l18.79,45.16h-3.38l-6.06-14.88h-21.48l-6.08,14.88h-3.44l18.91-45.16ZM413.41,78.94l-9.63-23.66-9.67,23.66h19.3Z"/>
  <path class="st0" d="M445.67,97.14c-2.8,0-5.29-.75-7.48-2.25-2.19-1.5-3.96-3.33-5.29-5.48v20.64h-3.13v-46.56h2.88v6.65c1.34-2.11,3.11-3.83,5.32-5.16,2.21-1.33,4.55-2,7.01-2,2.29,0,4.38.48,6.26,1.43,1.88.95,3.52,2.24,4.92,3.87,1.4,1.63,2.48,3.45,3.26,5.48.77,2.03,1.16,4.14,1.16,6.34,0,3.04-.63,5.86-1.88,8.46-1.25,2.6-3,4.68-5.23,6.24-2.23,1.56-4.83,2.34-7.8,2.34ZM444.92,94.27c1.92,0,3.64-.4,5.17-1.2,1.52-.8,2.83-1.88,3.91-3.23,1.08-1.35,1.92-2.87,2.5-4.56.58-1.69.88-3.42.88-5.19,0-1.9-.33-3.7-1-5.41-.67-1.71-1.6-3.22-2.79-4.53s-2.57-2.35-4.13-3.13-3.27-1.17-5.1-1.17c-1.13,0-2.33.23-3.6.7-1.27.46-2.48,1.12-3.63,1.96-1.15.84-2.1,1.81-2.85,2.88-.75,1.08-1.21,2.18-1.38,3.32v10.84c.75,1.6,1.72,3.07,2.91,4.4,1.19,1.33,2.58,2.38,4.16,3.16,1.59.78,3.23,1.17,4.95,1.17Z"/>
  <path class="st0" d="M483.99,97.14c-2.8,0-5.29-.75-7.48-2.25s-3.96-3.33-5.29-5.48v20.64h-3.13v-46.56h2.88v6.65c1.34-2.11,3.11-3.83,5.32-5.16,2.21-1.33,4.55-2,7.01-2,2.3,0,4.38.48,6.26,1.43,1.88.95,3.52,2.24,4.92,3.87,1.4,1.63,2.48,3.45,3.26,5.48.77,2.03,1.16,4.14,1.16,6.34,0,3.04-.63,5.86-1.88,8.46-1.25,2.6-3,4.68-5.23,6.24-2.23,1.56-4.83,2.34-7.8,2.34ZM483.24,94.27c1.92,0,3.64-.4,5.17-1.2,1.52-.8,2.83-1.88,3.91-3.23,1.08-1.35,1.92-2.87,2.5-4.56.58-1.69.88-3.42.88-5.19,0-1.9-.33-3.7-1-5.41-.67-1.71-1.6-3.22-2.79-4.53s-2.57-2.35-4.13-3.13-3.27-1.17-5.1-1.17c-1.13,0-2.33.23-3.6.7-1.27.46-2.48,1.12-3.63,1.96-1.15.84-2.1,1.81-2.85,2.88-.75,1.08-1.21,2.18-1.38,3.32v10.84c.75,1.6,1.72,3.07,2.91,4.4,1.19,1.33,2.58,2.38,4.16,3.16,1.59.78,3.24,1.17,4.95,1.17Z"/>
</svg>