<?xml version="1.0" encoding="UTF-8"?>
<svg id="Layer_1" xmlns="http://www.w3.org/2000/svg" version="1.1" viewBox="0 0 216.6 292.5">
  <!-- Generator: Adobe Illustrator 29.3.1, SVG Export Plug-In . SVG Version: 2.1.0 Build 151)  -->
  <defs>
    <style>
      .st0 {
        fill: none;
        stroke: #fff;
        stroke-miterlimit: 10;
      }
    </style>
  </defs>
  <polyline class="st0" points="175.2 158.5 205.2 143.1 106.3 81.8 11.2 138.7 38.1 156.6"/>
  <path class="st0" d="M38.1,213.4s49.5-12.4,68,18.5c24.4-27.9,69.1-18.5,69.1-18.5v-54.8s-79.7-45.3-137.1-2.3v57.3h0Z"/>
  <path class="st0" d="M58.4,110.4s-40.5-16.5-41.5,10.3v50.4s3.4-2.3,6.8.3l.3-50.7s8.2-12.8,27-5.9"/>
  <path class="st0" d="M16.4,180.9s-1.7,13.7-1.9,15.1c-.5,2.6-1.2,5,1.4,4.8,2.4-.2,9.1,0,9.1,0,0,0,2,.2,1-4.7-.9-4.5-1.6-15.2-1.6-15.2,0,0,3.6-10.4-4-10.7-6.7-.4-5.9,7.9-4,10.7h0Z"/>
</svg>