<?xml version="1.0" encoding="UTF-8"?>
<svg id="Layer_1" xmlns="http://www.w3.org/2000/svg" version="1.1" viewBox="0 0 160 160">
  <!-- Generator: Adobe Illustrator 29.3.1, SVG Export Plug-In . SVG Version: 2.1.0 Build 151)  -->
  <defs>
    <style>
      .st0 {
        fill: none;
        stroke: #263f3c;
        stroke-miterlimit: 10;
      }
    </style>
  </defs>
  <ellipse class="st0" cx="58.7" cy="68.9" rx="32.1" ry="32.1"/>
  <ellipse class="st0" cx="58.7" cy="68.9" rx="40.3" ry="40.3"/>
  <ellipse class="st0" cx="58.7" cy="68.9" rx="40.3" ry="40.3"/>
  <polygon class="st0" points="144.3 125.9 138.9 133.6 131.1 128.1 129.6 130.2 97.1 107.6 98.5 105.5 87.6 97.9 92.9 90.2 103.9 97.8 105 96.2 137.5 118.9 136.4 120.4 144.3 125.9"/>
  <path class="st0" d="M43.2,73.7l14.2,5,13.5-28.8c.3-.8,1.2-1.2,2-.8l2.3,1.2c.7.3,1,1.1.8,1.8l-14,32.8c-.6,1.6-2.4,2.4-4,1.6l-17.2-7.2c-.9-.4-1.3-1.5-.9-2.4l.8-2.1c.4-1,1.5-1.5,2.5-1Z"/>
</svg>