<?xml version="1.0" encoding="UTF-8"?>
<svg id="Layer_1" xmlns="http://www.w3.org/2000/svg" version="1.1" viewBox="0 0 254.1 238.3">
  <!-- Generator: Adobe Illustrator 29.3.1, SVG Export Plug-In . SVG Version: 2.1.0 Build 151)  -->
  <defs>
    <style>
      .st0 {
        fill: none;
        stroke: #263f3c;
        stroke-miterlimit: 10;
      }
    </style>
  </defs>
  <path class="st0" d="M244.5,116.5c0,59.6-52.1,108-116.5,108S11.5,176.1,11.5,116.5,31.1,47.7,61,28.1c18.9-12.4,42-19.6,67-19.6,64.3,0,116.5,48.3,116.5,108Z"/>
  <path class="st0" d="M216,116.5c0,59.5-39.4,107.7-88,107.7s-88-48.2-88-107.7,14.8-68.7,37.4-88.2c14.3-12.3,31.8-19.6,50.6-19.6,48.6,0,88,48.2,88,107.7h0Z"/>
  <path class="st0" d="M181.2,116.5c0,59.5-23.1,107.7-51.6,107.7s-51.6-48.2-51.6-107.7,8.7-68.7,21.9-88.2c8.4-12.3,18.6-19.6,29.6-19.6,28.5,0,51.6,48.2,51.6,107.7Z"/>
  <path class="st0" d="M128,168.1c-64.3,0-116.5-23.1-116.5-51.6s52.2-51.6,116.5-51.6,74.3,8.7,95.3,21.9c13.3,8.4,21.2,18.6,21.2,29.7,0,28.5-52.2,51.6-116.5,51.6Z"/>
  <path class="st0" d="M128,204.6c-64.3,0-116.5-39.4-116.5-88.1S63.6,28.4,128,28.4s74.3,14.8,95.3,37.5c13.3,14.3,21.2,31.8,21.2,50.6,0,48.6-52.1,88.1-116.5,88.1h0Z"/>
</svg>